<svg xmlns="http://www.w3.org/2000/svg" viewBox="0 0 100 100" width="100" height="100">
  <title>RedWork</title>
  <!-- Tejuela de marca con la esquina cortada -->
  <path d="M6 6 H94 V76 L76 94 H6 Z" fill="#e4571e"/>
  <!-- Malla de la R, simplificada para que aguante 16px -->
  <g stroke="#ffffff" stroke-width="3.4" stroke-linecap="round" opacity="0.85">
    <line x1="28" y1="22" x2="28" y2="78"/>
    <line x1="28" y1="22" x2="56" y2="22"/>
    <line x1="56" y1="22" x2="70" y2="36"/>
    <line x1="70" y1="36" x2="56" y2="50"/>
    <line x1="56" y1="50" x2="28" y2="50"/>
    <line x1="52" y1="50" x2="72" y2="78"/>
    <line x1="28" y1="22" x2="56" y2="50"/>
    <line x1="28" y1="50" x2="56" y2="22"/>
    <line x1="28" y1="50" x2="72" y2="78"/>
  </g>
  <g fill="#ffffff">
    <circle cx="28" cy="22" r="7"/>
    <circle cx="28" cy="50" r="7"/>
    <circle cx="28" cy="78" r="7"/>
    <circle cx="56" cy="22" r="6"/>
    <circle cx="70" cy="36" r="6"/>
    <circle cx="56" cy="50" r="6"/>
    <circle cx="72" cy="78" r="7"/>
  </g>
</svg>
